#define dai_width 40
#define dai_height 17
static char dai_bits[] = {
   0x00, 0x00, 0x00, 0x00, 0x00, 0xae, 0xaa, 0xaa, 0xaa, 0x5a, 0x54, 0x00,
   0x55, 0x2a, 0x28, 0xae, 0x10, 0x15, 0x2a, 0x5c, 0x54, 0xf9, 0x0a, 0x16,
   0x2e, 0xae, 0x38, 0x96, 0x16, 0x5f, 0x54, 0x5c, 0x4e, 0x2e, 0x27, 0xae,
   0x5c, 0x66, 0x16, 0x6b, 0x54, 0x2c, 0x06, 0x2e, 0x17, 0xae, 0x1c, 0x73,
   0x0d, 0x6b, 0x54, 0x0c, 0xfb, 0x9c, 0x17, 0x2e, 0xc4, 0x29, 0x8c, 0x55,
   0x14, 0xef, 0x5d, 0xcf, 0x2b, 0xee, 0x7f, 0x5d, 0xff, 0x6b, 0x14, 0x55,
   0x55, 0x29, 0x15, 0x6e, 0x55, 0x55, 0x55, 0x55, 0x00, 0x00, 0x00, 0x00,
   0x00};
