#define irrs_width 57
#define irrs_height 20
static char irrs_bits[] = {
   0xaa, 0xaa, 0xaa, 0xaa, 0xaa, 0xaa, 0xaa, 0x00, 0xff, 0xff, 0xff, 0xff,
   0xff, 0xff, 0x7f, 0x01, 0x06, 0x00, 0x00, 0x00, 0x80, 0x02, 0x40, 0x00,
   0x03, 0x04, 0x00, 0x01, 0x40, 0x01, 0x20, 0x01, 0xb6, 0xae, 0x5e, 0xab,
   0xd7, 0xe2, 0x67, 0x01, 0x2b, 0xbf, 0xae, 0xae, 0xab, 0xd1, 0x6b, 0x00,
   0x96, 0x16, 0x8f, 0xc6, 0xa3, 0xe1, 0x72, 0x01, 0x0b, 0x8f, 0x46, 0xa7,
   0xd1, 0x29, 0x78, 0x00, 0x86, 0x06, 0x83, 0xc7, 0xe0, 0xa9, 0x70, 0x01,
   0x8b, 0x8f, 0xe5, 0x63, 0xf9, 0x55, 0x23, 0x00, 0x46, 0x87, 0xeb, 0xc1,
   0x7a, 0xf8, 0x6a, 0x01, 0x8b, 0x4b, 0xd3, 0xf2, 0xb4, 0xf4, 0x7b, 0x00,
   0x46, 0x87, 0xd3, 0xc1, 0x74, 0x2c, 0x69, 0x01, 0x83, 0x43, 0x57, 0xf0,
   0x55, 0x48, 0x70, 0x00, 0x42, 0x43, 0x4b, 0xa1, 0x51, 0x05, 0x78, 0x01,
   0xa3, 0xa2, 0x46, 0xa9, 0xd1, 0x59, 0x3e, 0x00, 0xfa, 0xff, 0xef, 0xff,
   0xfb, 0xf9, 0x7f, 0x01, 0xf7, 0xf7, 0xd7, 0xff, 0xf5, 0xfd, 0x2f, 0x00,
   0x02, 0x00, 0x00, 0x00, 0x00, 0x00, 0x00, 0x01, 0xa9, 0xaa, 0xaa, 0xaa,
   0xaa, 0xaa, 0xaa, 0x00};
