#define welcome_width 530
#define welcome_height 50
static char welcome_bits[] = {
   0xff, 0xff, 0xff, 0xff, 0xff, 0xff, 0xff, 0xff, 0xff, 0xff, 0xff, 0xff,
   0xff, 0xff, 0xff, 0xff, 0xff, 0xff, 0xff, 0xff, 0xff, 0xff, 0xff, 0xff,
   0xff, 0xff, 0xff, 0xff, 0xff, 0xff, 0xff, 0xff, 0xff, 0xff, 0xff, 0xff,
   0xff, 0xff, 0xff, 0xff, 0xff, 0xff, 0xff, 0xff, 0xff, 0xff, 0xff, 0xff,
   0xff, 0xff, 0xff, 0xff, 0xff, 0xff, 0xff, 0xff, 0xff, 0xff, 0xff, 0xff,
   0xff, 0xff, 0xff, 0xff, 0xff, 0xff, 0xff, 0xab, 0xaa, 0xaa, 0xaa, 0xaa,
   0xaa, 0xaa, 0xaa, 0xaa, 0xaa, 0xaa, 0xaa, 0xaa, 0xaa, 0xaa, 0xaa, 0xaa,
   0xaa, 0xaa, 0xaa, 0xaa, 0xaa, 0xaa, 0xaa, 0xaa, 0xaa, 0xaa, 0xaa, 0xaa,
   0xaa, 0xaa, 0xaa, 0xaa, 0xaa, 0xaa, 0xaa, 0xaa, 0xaa, 0xaa, 0xaa, 0xaa,
   0xaa, 0xaa, 0xaa, 0xaa, 0xaa, 0xaa, 0xaa, 0xaa, 0xaa, 0xaa, 0xaa, 0xaa,
   0xaa, 0xaa, 0xaa, 0xaa, 0xaa, 0xaa, 0xaa, 0xaa, 0xaa, 0xaa, 0xaa, 0xaa,
   0xaa, 0xfe, 0x55, 0x55, 0x55, 0x55, 0x55, 0x55, 0x55, 0x55, 0x55, 0x55,
   0x55, 0x55, 0x55, 0x55, 0x55, 0x55, 0x55, 0x55, 0x55, 0x55, 0x55, 0x55,
   0x55, 0x55, 0x55, 0x55, 0x55, 0x55, 0x55, 0x55, 0x55, 0x55, 0x55, 0x55,
   0x55, 0x55, 0x55, 0x55, 0x55, 0x55, 0x55, 0x55, 0x55, 0x55, 0x55, 0x55,
   0x55, 0x55, 0x55, 0x55, 0x55, 0x55, 0x55, 0x55, 0x55, 0x55, 0x55, 0x55,
   0x55, 0x55, 0x55, 0x55, 0x55, 0x55, 0x55, 0x55, 0xff, 0xab, 0xaa, 0xaa,
   0xaa, 0xaa, 0xaa, 0xaa, 0xaa, 0xaa, 0xaa, 0xaa, 0xaa, 0xaa, 0xaa, 0xaa,
   0xaa, 0xaa, 0xaa, 0xaa, 0xaa, 0xaa, 0xaa, 0xaa, 0xaa, 0xaa, 0xaa, 0xaa,
   0xaa, 0xaa, 0xaa, 0xaa, 0xaa, 0xaa, 0xaa, 0xaa, 0xaa, 0xaa, 0xaa, 0xaa,
   0xaa, 0xaa, 0xaa, 0xaa, 0xaa, 0xaa, 0xaa, 0xaa, 0xaa, 0xaa, 0xaa, 0xaa,
   0xaa, 0xaa, 0xaa, 0xaa, 0xaa, 0xaa, 0xaa, 0xaa, 0xaa, 0xaa, 0xaa, 0xaa,
   0xaa, 0xaa, 0xaa, 0xfe, 0x55, 0x55, 0x55, 0x55, 0x55, 0x55, 0x55, 0x55,
   0x55, 0x55, 0x55, 0x55, 0x55, 0x55, 0x55, 0x55, 0x55, 0x55, 0x55, 0x55,
   0x55, 0x55, 0x55, 0x55, 0x55, 0x55, 0x55, 0x55, 0x55, 0x55, 0x55, 0x55,
   0x55, 0x55, 0x55, 0x55, 0x55, 0x55, 0x55, 0x55, 0x55, 0x55, 0x55, 0x55,
   0x55, 0x55, 0x55, 0x55, 0x55, 0x55, 0x55, 0x55, 0x55, 0x55, 0x55, 0x55,
   0x55, 0x55, 0x55, 0x55, 0x55, 0x55, 0x55, 0x55, 0x55, 0x55, 0xff, 0xab,
   0xaa, 0xaa, 0xaa, 0xaa, 0xaa, 0xaa, 0xaa, 0xaa, 0xaa, 0xaa, 0xaa, 0xaa,
   0xaa, 0xaa, 0xaa, 0xaa, 0xaa, 0xaa, 0xaa, 0xaa, 0xaa, 0xaa, 0xaa, 0xaa,
   0xaa, 0xaa, 0xaa, 0xaa, 0xaa, 0xaa, 0xaa, 0xaa, 0xaa, 0xaa, 0xaa, 0xaa,
   0xaa, 0xaa, 0xaa, 0xaa, 0xaa, 0xaa, 0xaa, 0xaa, 0xaa, 0xaa, 0xaa, 0xaa,
   0xaa, 0xaa, 0xaa, 0xaa, 0xaa, 0xaa, 0xaa, 0xaa, 0xaa, 0xaa, 0xaa, 0xaa,
   0xaa, 0xaa, 0xaa, 0xaa, 0xaa, 0xfe, 0x55, 0x55, 0x55, 0x55, 0x55, 0x55,
   0x55, 0x55, 0x55, 0x55, 0x55, 0x55, 0x55, 0x55, 0x55, 0x55, 0x55, 0x55,
   0x55, 0x55, 0x55, 0x55, 0x55, 0x55, 0x55, 0x55, 0x55, 0x55, 0x55, 0x55,
   0x55, 0x55, 0x55, 0x55, 0x55, 0x55, 0x55, 0x55, 0x55, 0x55, 0x55, 0x55,
   0x55, 0x55, 0x55, 0x55, 0x55, 0x55, 0x55, 0x55, 0x55, 0x55, 0x55, 0x55,
   0x55, 0x55, 0x55, 0x55, 0x55, 0x55, 0x55, 0x55, 0x55, 0x55, 0x55, 0x55,
   0xff, 0xab, 0xaa, 0xaa, 0xaa, 0xaa, 0xaa, 0xaa, 0xaa, 0xaa, 0xaa, 0xaa,
   0xaa, 0xaa, 0xaa, 0xaa, 0xaa, 0xaa, 0xaa, 0xaa, 0xaa, 0xaa, 0xaa, 0xaa,
   0xaa, 0xaa, 0xaa, 0xaa, 0xaa, 0xaa, 0xaa, 0xaa, 0xaa, 0xaa, 0xaa, 0xaa,
   0xaa, 0xaa, 0xaa, 0xaa, 0xaa, 0xaa, 0xaa, 0xaa, 0xaa, 0xaa, 0xaa, 0xaa,
   0xaa, 0xaa, 0xaa, 0xaa, 0xaa, 0xaa, 0xaa, 0xaa, 0xaa, 0xaa, 0xaa, 0xaa,
   0xaa, 0xaa, 0xaa, 0xaa, 0xaa, 0xaa, 0xaa, 0xfe, 0x55, 0x55, 0x55, 0x55,
   0x55, 0x55, 0x55, 0x55, 0x55, 0x55, 0x55, 0x55, 0x55, 0x55, 0x55, 0x55,
   0x55, 0x55, 0x55, 0x55, 0x55, 0x55, 0x55, 0x55, 0x55, 0x55, 0x55, 0x55,
   0x55, 0x55, 0x55, 0x55, 0x55, 0x55, 0x55, 0x55, 0x55, 0x55, 0x55, 0x55,
   0x55, 0x55, 0x55, 0x55, 0x55, 0x55, 0x55, 0x55, 0x55, 0x55, 0x55, 0x55,
   0x55, 0x55, 0x55, 0x55, 0x55, 0x55, 0x55, 0x55, 0x55, 0x55, 0x55, 0x55,
   0x55, 0x55, 0xff, 0xab, 0xaa, 0xaa, 0xaa, 0xaa, 0xaa, 0xaa, 0xaa, 0xaa,
   0xaa, 0xaa, 0xaa, 0xaa, 0xaa, 0xaa, 0xaa, 0xaa, 0xaa, 0xaa, 0xaa, 0xaa,
   0xaa, 0xaa, 0xaa, 0xaa, 0xaa, 0xaa, 0xaa, 0xaa, 0xaa, 0xaa, 0xaa, 0xaa,
   0xaa, 0xaa, 0xaa, 0xaa, 0xaa, 0xaa, 0xaa, 0xaa, 0xaa, 0xaa, 0xaa, 0xaa,
   0xaa, 0xaa, 0xaa, 0xaa, 0xaa, 0xaa, 0xaa, 0xaa, 0xaa, 0xaa, 0xaa, 0xaa,
   0xaa, 0xaa, 0xaa, 0xaa, 0xaa, 0xaa, 0xaa, 0xaa, 0xaa, 0xfe, 0x55, 0x55,
   0x55, 0x55, 0x55, 0x55, 0x55, 0x55, 0x55, 0x55, 0x55, 0x55, 0x55, 0x55,
   0x55, 0x55, 0x55, 0x55, 0x55, 0x55, 0x55, 0x55, 0x55, 0x55, 0x55, 0x55,
   0x55, 0x55, 0x55, 0x55, 0x55, 0x55, 0x55, 0x55, 0x55, 0x55, 0x55, 0x55,
   0x55, 0x55, 0x55, 0x55, 0x55, 0x55, 0x55, 0x55, 0x55, 0x55, 0x55, 0x55,
   0x55, 0x55, 0x55, 0x55, 0x55, 0x55, 0x55, 0x55, 0x55, 0x55, 0x55, 0x55,
   0x55, 0x55, 0x55, 0x55, 0xff, 0xab, 0xfa, 0xff, 0xff, 0xff, 0xff, 0xaa,
   0xaa, 0xfa, 0xab, 0xaa, 0xaa, 0xaa, 0xaa, 0xaa, 0xaa, 0xaa, 0xaa, 0xaa,
   0xaa, 0xaa, 0xaa, 0xaa, 0xfe, 0xaa, 0xaa, 0xaa, 0xaa, 0xaa, 0xaa, 0xaa,
   0xaa, 0xaa, 0xaa, 0xaa, 0xaa, 0xfa, 0xff, 0xff, 0xff, 0xff, 0xff, 0xff,
   0xff, 0xff, 0xff, 0xff, 0xff, 0xff, 0xaf, 0xaa, 0xaa, 0xaa, 0xaa, 0xaa,
   0xaa, 0xaa, 0xaa, 0xaa, 0xfe, 0x55, 0x55, 0xf5, 0x57, 0x55, 0x55, 0xff,
   0x55, 0xf5, 0xff, 0xfd, 0xef, 0x7f, 0x55, 0x55, 0xff, 0x55, 0x55, 0x55,
   0x55, 0x55, 0x55, 0x55, 0x55, 0x55, 0x55, 0x55, 0x55, 0x55, 0x55, 0x7d,
   0x55, 0x55, 0x55, 0x55, 0x55, 0x55, 0x55, 0x55, 0x55, 0x55, 0x55, 0x55,
   0xf5, 0xff, 0xfd, 0xef, 0xff, 0xff, 0xf7, 0xbf, 0xff, 0xff, 0xdf, 0xff,
   0xfe, 0x57, 0x55, 0x55, 0x55, 0x55, 0x55, 0x55, 0x55, 0x55, 0x55, 0xff,
   0xaa, 0xaa, 0xfe, 0xab, 0xaa, 0xaa, 0xfe, 0xab, 0xba, 0xaa, 0xac, 0x6a,
   0x55, 0x54, 0x55, 0x5f, 0x51, 0x55, 0x55, 0x55, 0x55, 0x55, 0x55, 0x55,
   0x55, 0x55, 0x55, 0x55, 0x55, 0x55, 0x5d, 0x54, 0x55, 0x55, 0x55, 0x55,
   0x55, 0x55, 0x55, 0x55, 0x55, 0x55, 0x55, 0x75, 0x55, 0x59, 0x65, 0x55,
   0x55, 0x65, 0x95, 0x55, 0x55, 0x95, 0x55, 0x56, 0x45, 0x55, 0x55, 0x55,
   0x55, 0x55, 0x55, 0x55, 0x55, 0x55, 0xaf, 0xa8, 0xaa, 0xbe, 0xa2, 0xaa,
   0xaa, 0xfe, 0x55, 0x55, 0x15, 0x58, 0x01, 0x0a, 0xaa, 0xaa, 0x56, 0xa9,
   0xaa, 0xaa, 0xaa, 0xaa, 0xaa, 0xaa, 0xaa, 0xaa, 0xaa, 0xaa, 0xaa, 0xaa,
   0xaa, 0x2f, 0xaa, 0xaa, 0xaa, 0xaa, 0xaa, 0xaa, 0xaa, 0xaa, 0xaa, 0xaa,
   0xaa, 0xaa, 0x9a, 0x2a, 0xa8, 0x40, 0x0a, 0xaa, 0xa0, 0x02, 0x29, 0xa8,
   0x82, 0x0a, 0xa4, 0xa0, 0xaa, 0xaa, 0xaa, 0xaa, 0xaa, 0xaa, 0xaa, 0xaa,
   0xaa, 0xab, 0x54, 0x55, 0xaf, 0x52, 0x55, 0x55, 0xff, 0xab, 0xaa, 0x2a,
   0x58, 0x01, 0x0b, 0x54, 0x55, 0xab, 0x50, 0x55, 0x55, 0x55, 0x55, 0x55,
   0x55, 0x55, 0x55, 0x55, 0x55, 0x55, 0x55, 0xd5, 0x5f, 0x54, 0x55, 0x55,
   0x55, 0x55, 0x55, 0x55, 0x55, 0x55, 0x55, 0x55, 0x55, 0xd5, 0x2a, 0x58,
   0x01, 0x05, 0xab, 0x60, 0x05, 0x14, 0xac, 0x82, 0x15, 0x50, 0x40, 0x55,
   0x55, 0x55, 0x55, 0x55, 0x55, 0x55, 0x55, 0x55, 0xab, 0xa8, 0xaa, 0xa2,
   0xa2, 0xaa, 0xaa, 0xfe, 0x55, 0xd5, 0x15, 0x5d, 0xd0, 0x83, 0xea, 0xbf,
   0x58, 0xa9, 0xea, 0xbf, 0xaa, 0xff, 0x55, 0xbf, 0x7f, 0xff, 0xab, 0xea,
   0xbf, 0xaa, 0xea, 0x2b, 0xaf, 0xfa, 0xaf, 0xaa, 0xaa, 0xdf, 0xbf, 0xff,
   0xd5, 0x5f, 0xfd, 0xaa, 0xea, 0x2a, 0xba, 0xa8, 0x87, 0xab, 0xe8, 0xa2,
   0x1e, 0xae, 0xa2, 0x8b, 0x7a, 0xa8, 0xaa, 0x7e, 0xfd, 0xf5, 0x55, 0xfd,
   0x57, 0xfd, 0x7e, 0x29, 0x54, 0xf5, 0xb7, 0xa2, 0xaa, 0xaa, 0xfe, 0xab,
   0xea, 0x2a, 0xba, 0xa9, 0x47, 0xf5, 0x7f, 0x5b, 0x51, 0xf5, 0x7f, 0xd5,
   0xff, 0xab, 0xff, 0xbf, 0xff, 0x57, 0xf5, 0x7f, 0x55, 0xf5, 0x55, 0x57,
   0xfd, 0x5f, 0x55, 0xd5, 0xff, 0xdf, 0xff, 0xeb, 0xaf, 0xfe, 0x55, 0xd5,
   0x15, 0x5d, 0xd1, 0x43, 0x57, 0x74, 0x45, 0x0f, 0x5d, 0xd1, 0x15, 0x3d,
   0x54, 0x55, 0xbf, 0xfe, 0xfa, 0x55, 0xff, 0xaf, 0xfe, 0x7f, 0xdd, 0xa8,
   0xfa, 0x7f, 0x51, 0x55, 0x55, 0xff, 0x55, 0xd5, 0x15, 0x5d, 0xd0, 0xa1,
   0xfe, 0xaa, 0xba, 0xa8, 0xfe, 0xaa, 0xf5, 0xab, 0xec, 0x97, 0x2b, 0x57,
   0xa9, 0xfe, 0xaa, 0xaa, 0x6a, 0x55, 0x45, 0xbf, 0x6a, 0x55, 0xf5, 0xcb,
   0x95, 0xab, 0xf4, 0x45, 0x5d, 0x54, 0xd5, 0x2a, 0xbe, 0xe8, 0xa1, 0xab,
   0xf8, 0xa2, 0x87, 0xae, 0xe2, 0x8b, 0x1e, 0xaa, 0xea, 0x2f, 0x5e, 0x7c,
   0xd5, 0xaf, 0xb2, 0x5f, 0xae, 0x5e, 0x54, 0x7f, 0xb5, 0xa2, 0xaa, 0xaa,
   0xfe, 0xab, 0x2a, 0x15, 0xbd, 0xe9, 0x43, 0xbf, 0xaa, 0x5e, 0x51, 0xbf,
   0xaa, 0xfa, 0x55, 0xff, 0xd5, 0xd5, 0xab, 0xa6, 0xbe, 0xaa, 0xaa, 0xea,
   0xaa, 0xa2, 0xaf, 0x6a, 0x55, 0xf5, 0xea, 0xea, 0x55, 0xf3, 0x8a, 0xae,
   0xa8, 0xaa, 0x2a, 0x5e, 0xe9, 0x23, 0xaa, 0x78, 0xa5, 0x8f, 0xa8, 0xe2,
   0x95, 0x3e, 0xaa, 0xea, 0x2b, 0xad, 0xb8, 0xd2, 0x57, 0xfd, 0x57, 0x57,
   0xae, 0xa8, 0x5f, 0x55, 0x51, 0x55, 0x55, 0xff, 0x55, 0xd5, 0x2b, 0xae,
   0xfa, 0x52, 0xaf, 0xa8, 0xbc, 0xa8, 0xaf, 0xa8, 0x78, 0x85, 0x70, 0x55,
   0xaa, 0xaa, 0x42, 0xaf, 0xa8, 0x54, 0x35, 0x15, 0xc0, 0x17, 0x54, 0x55,
   0x7d, 0x95, 0xaa, 0xaa, 0xb0, 0x4a, 0x5d, 0x54, 0x55, 0x0b, 0xaf, 0xea,
   0xa2, 0x2d, 0xbc, 0xaa, 0x8b, 0xb6, 0xf0, 0xaa, 0x2e, 0xaa, 0xea, 0x0a,
   0x5e, 0x5c, 0xf1, 0x15, 0xc2, 0x55, 0xa9, 0x5c, 0xd4, 0x57, 0xa8, 0xa0,
   0xaa, 0xaa, 0xfe, 0xab, 0x2a, 0x2b, 0x5f, 0xe5, 0xa0, 0x57, 0x54, 0xac,
   0xd0, 0x57, 0x54, 0xbc, 0x82, 0x96, 0x2a, 0x54, 0x41, 0xa5, 0x2f, 0x54,
   0xa8, 0xaa, 0x15, 0xe0, 0x15, 0x54, 0x54, 0x95, 0x0a, 0xaa, 0xa0, 0xb2,
   0x8a, 0xae, 0xa8, 0xaa, 0x1b, 0xaf, 0x72, 0x51, 0xdd, 0xbc, 0xca, 0x45,
   0x75, 0xf3, 0x2a, 0x17, 0x55, 0x55, 0x35, 0xad, 0x58, 0xf1, 0x0a, 0x5a,
   0xaa, 0xa0, 0x56, 0xe8, 0x2b, 0xa8, 0x50, 0x55, 0x55, 0xff, 0x55, 0xd5,
   0x17, 0x57, 0x65, 0xd0, 0x2b, 0x5c, 0x5c, 0x94, 0x2b, 0xac, 0x5c, 0xa1,
   0x15, 0x15, 0x56, 0xa0, 0xc2, 0x2b, 0x5c, 0x54, 0xd5, 0x15, 0xf5, 0x05,
   0xad, 0x54, 0xd5, 0x0a, 0x2b, 0x50, 0x41, 0x45, 0x5d, 0x54, 0x55, 0x27,
   0x57, 0xe5, 0xa0, 0x2e, 0x5c, 0x95, 0x83, 0xba, 0x70, 0x55, 0x0e, 0xaa,
   0x2a, 0x0b, 0x5e, 0x54, 0x73, 0x85, 0x56, 0x54, 0x00, 0x2c, 0xd4, 0x15,
   0x5a, 0xa9, 0xaa, 0xaa, 0xfe, 0xab, 0x2a, 0x6b, 0x47, 0xf1, 0xe8, 0x15,
   0xae, 0xac, 0xe8, 0x15, 0x54, 0x5c, 0xa0, 0x8b, 0x0b, 0x57, 0xe8, 0xe2,
   0x0b, 0xae, 0xa8, 0xaa, 0x8b, 0x7a, 0x85, 0xae, 0xa8, 0xea, 0x8a, 0x2b,
   0x74, 0xd3, 0x85, 0x2e, 0xa8, 0xaa, 0x5b, 0x43, 0x65, 0xa8, 0xde, 0x0d,
   0x95, 0xa1, 0x7a, 0x37, 0x54, 0x86, 0xaa, 0xaa, 0x2b, 0xaf, 0xa8, 0xb0,
   0x82, 0x2e, 0x2e, 0x14, 0x56, 0xea, 0x0a, 0x5a, 0x51, 0x55, 0x55, 0xff,
   0x55, 0xd5, 0x2b, 0xa3, 0x36, 0xd4, 0x0b, 0x2f, 0x5c, 0xd4, 0x0b, 0x15,
   0xae, 0xa8, 0x95, 0x05, 0x2e, 0x74, 0xc5, 0x95, 0x5f, 0x54, 0xd5, 0x15,
   0xf5, 0x42, 0x5d, 0x54, 0xf5, 0x45, 0x17, 0xba, 0xf0, 0x42, 0x1f, 0x54,
   0x55, 0x27, 0x67, 0x75, 0xa8, 0x2a, 0x9c, 0xd5, 0xa1, 0xaa, 0x70, 0x56,
   0x87, 0xaa, 0xaa, 0x17, 0x2e, 0xd4, 0x7a, 0xa1, 0x56, 0x16, 0x54, 0x2f,
   0xf4, 0x8a, 0xba, 0xa8, 0xaa, 0xaa, 0xfe, 0xab, 0x2a, 0x56, 0xe7, 0x6a,
   0xe8, 0xaa, 0x1f, 0xac, 0xe8, 0x0a, 0x15, 0x56, 0xe8, 0xcb, 0x8b, 0x57,
   0xfc, 0xe2, 0xca, 0x2f, 0xa8, 0xea, 0x8b, 0xba, 0xa2, 0xae, 0xa8, 0xea,
   0x82, 0x2b, 0x7e, 0xe3, 0x45, 0x17, 0xaa, 0xaa, 0xd6, 0x63, 0x35, 0x54,
   0xdd, 0x8d, 0xd5, 0x50, 0x75, 0x37, 0x56, 0x43, 0x55, 0xd5, 0x0b, 0x57,
   0xe8, 0x51, 0xa1, 0x2f, 0x2f, 0xaa, 0x56, 0xea, 0x82, 0x5e, 0x51, 0x55,
   0x55, 0xff, 0x55, 0xd5, 0xaf, 0x62, 0x15, 0xea, 0xea, 0x0b, 0x5e, 0xd4,
   0x85, 0xaa, 0x2e, 0xd4, 0x95, 0x4a, 0x2e, 0xba, 0xc2, 0xb5, 0x15, 0xaa,
   0xea, 0x15, 0x75, 0x41, 0x5f, 0x54, 0x75, 0xa5, 0x2b, 0x5d, 0x71, 0x45,
   0x37, 0x55, 0x55, 0x37, 0xe2, 0x2a, 0xaa, 0x3a, 0x85, 0xab, 0xa8, 0xea,
   0x14, 0xae, 0xa2, 0xaa, 0xaa, 0x95, 0x2e, 0xea, 0xba, 0x50, 0x57, 0x2a,
   0x55, 0x2f, 0x74, 0x45, 0xbd, 0xa8, 0xaa, 0xaa, 0xfe, 0xab, 0x2a, 0x56,
   0xe1, 0x0a, 0xd4, 0x95, 0x00, 0x2f, 0xe8, 0x4a, 0x55, 0x57, 0xf4, 0xcb,
   0x85, 0x57, 0x5c, 0xe5, 0xaa, 0x00, 0xaa, 0xca, 0x8a, 0xba, 0x52, 0xaf,
   0xa8, 0xea, 0x42, 0x17, 0xae, 0xe2, 0xa2, 0x17, 0x55, 0x55, 0xcf, 0x62,
   0x15, 0x54, 0x5d, 0x85, 0x55, 0x50, 0x75, 0x15, 0x56, 0x41, 0x55, 0xd5,
   0x0b, 0x57, 0xf4, 0x51, 0xa9, 0x2f, 0x17, 0xaa, 0x17, 0xea, 0x42, 0x5f,
   0x50, 0x55, 0x55, 0xff, 0x55, 0xd5, 0xaf, 0x62, 0x15, 0xea, 0x0a, 0x80,
   0x6e, 0xd4, 0x85, 0xaa, 0x2e, 0xea, 0x84, 0x4a, 0x2f, 0xba, 0xc2, 0x05,
   0x80, 0xaa, 0xda, 0x05, 0x75, 0xa1, 0x57, 0x54, 0x75, 0xa5, 0x0b, 0x5d,
   0x71, 0x45, 0x2b, 0xaa, 0xaa, 0xb6, 0xf0, 0x0a, 0xaa, 0xba, 0xca, 0x2b,
   0xa8, 0xea, 0x2a, 0xaf, 0xa0, 0xaa, 0xaa, 0x95, 0x2e, 0x7a, 0xb8, 0xd0,
   0x2b, 0x2a, 0x55, 0x17, 0x6a, 0xa5, 0x2e, 0xf4, 0x57, 0x55, 0xff, 0xab,
   0x2a, 0x56, 0xf1, 0x8a, 0xea, 0x05, 0xf8, 0x16, 0xea, 0x4a, 0xf5, 0x2e,
   0x7a, 0xc3, 0x85, 0x17, 0x5c, 0xe1, 0x0a, 0xf8, 0xaa, 0xea, 0xca, 0xbb,
   0xd2, 0x2b, 0xa8, 0x7a, 0xc1, 0x17, 0xae, 0xe0, 0xa2, 0x17, 0x55, 0x55,
   0x4f, 0x63, 0x95, 0xaa, 0x5a, 0x85, 0x55, 0xaa, 0x6a, 0x15, 0x56, 0xa9,
   0xaa, 0xaa, 0x0b, 0x57, 0x7c, 0x58, 0xe9, 0x15, 0x17, 0xaa, 0x2b, 0xf5,
   0x42, 0x57, 0xf4, 0xaf, 0xaa, 0xfe, 0x55, 0xd5, 0xaf, 0x60, 0x85, 0xea,
   0x4a, 0x7d, 0x6f, 0xd4, 0x85, 0x7a, 0x57, 0xfc, 0xe4, 0x42, 0x2b, 0xbd,
   0xd0, 0x45, 0x7d, 0xaa, 0xea, 0xc5, 0x7b, 0xe1, 0x2b, 0xaa, 0xfa, 0xa2,
   0x95, 0x5e, 0x68, 0xc5, 0x0b, 0xaa, 0xaa, 0x56, 0xf1, 0x0a, 0x55, 0xbd,
   0xc2, 0x2b, 0x54, 0xf5, 0x0a, 0xaf, 0x50, 0x55, 0xd5, 0x8b, 0x2f, 0x3e,
   0xb8, 0xf0, 0x8b, 0x0b, 0x55, 0x17, 0x6a, 0xa5, 0x2f, 0x7a, 0xa5, 0xaa,
   0xfe, 0xab, 0x2a, 0x56, 0xf1, 0x8a, 0xca, 0x8a, 0x3f, 0x16, 0xef, 0xca,
   0x7f, 0x2e, 0x3e, 0xe3, 0xa2, 0x17, 0x5a, 0xfd, 0x8a, 0x3f, 0xaa, 0xea,
   0xda, 0xb1, 0xf2, 0x15, 0xaa, 0xb2, 0xa2, 0x0b, 0xad, 0xfe, 0xe2, 0x1b,
   0x55, 0x55, 0x57, 0x61, 0x85, 0xaa, 0x5a, 0xc5, 0x15, 0xaa, 0x6a, 0x15,
   0x57, 0xa8, 0xaa, 0xaa, 0x95, 0x57, 0x5e, 0x5c, 0xf9, 0x84, 0x8b, 0xaa,
   0xab, 0xf7, 0xe2, 0xab, 0xbe, 0x42, 0x55, 0xff, 0x55, 0xd5, 0xaa, 0xc8,
   0x42, 0xf5, 0xd5, 0x1f, 0x6e, 0xd7, 0xd5, 0x1f, 0xd6, 0xde, 0x60, 0x45,
   0x2b, 0xbd, 0xda, 0xf5, 0x1f, 0xaa, 0xca, 0xe5, 0x70, 0xf5, 0x0a, 0x55,
   0x7d, 0xd1, 0x95, 0x5e, 0x6d, 0xf5, 0x8a, 0xaa, 0xaa, 0x54, 0xd0, 0x42,
   0x55, 0x55, 0x21, 0x0b, 0x55, 0x55, 0x85, 0x2c, 0x54, 0x55, 0xd5, 0xcb,
   0x2b, 0x2f, 0xba, 0x7a, 0x83, 0x15, 0x55, 0xd7, 0x6b, 0xed, 0x55, 0x7f,
   0xa5, 0xaa, 0xfe, 0xab, 0xaa, 0x5a, 0xf0, 0x82, 0xca, 0xea, 0x15, 0x56,
   0xe5, 0xea, 0x15, 0x56, 0x2f, 0xf0, 0xa2, 0x17, 0x5a, 0x95, 0xca, 0x15,
   0x54, 0xf5, 0x9a, 0xb0, 0x7a, 0x05, 0x55, 0xb5, 0xa2, 0x0b, 0xad, 0xea,
   0xea, 0x0a, 0x55, 0x55, 0x5b, 0xe8, 0x82, 0xaa, 0x6a, 0x41, 0x17, 0xaa,
   0xaa, 0x05, 0x5d, 0xa8, 0xaa, 0xaa, 0xb5, 0x55, 0x17, 0x5a, 0xbd, 0xc0,
   0x8b, 0xaa, 0x2b, 0xf1, 0xea, 0xaa, 0xa2, 0x42, 0x55, 0xff, 0x55, 0x55,
   0x3d, 0xd4, 0xa5, 0x5a, 0xa8, 0x02, 0xab, 0x82, 0x28, 0x05, 0x45, 0x12,
   0x68, 0x45, 0x2b, 0x95, 0x8a, 0xa8, 0x02, 0xab, 0xca, 0x0a, 0x28, 0x4a,
   0x41, 0x55, 0x75, 0xd1, 0x95, 0x4a, 0x45, 0x15, 0x95, 0xaa, 0xaa, 0x3a,
   0xd4, 0xa5, 0xaa, 0xea, 0xb0, 0x8b, 0xaa, 0xaa, 0xc3, 0x2e, 0xaa, 0xaa,
   0xea, 0xab, 0xa0, 0x04, 0x0a, 0xa5, 0xa0, 0x15, 0x55, 0xab, 0x40, 0x54,
   0xa1, 0x42, 0xa1, 0xaa, 0xfe, 0xab, 0xaa, 0x0a, 0x54, 0xa0, 0x52, 0x01,
   0x80, 0x02, 0xa0, 0x00, 0x80, 0x02, 0x00, 0x34, 0xa0, 0x01, 0x0a, 0x00,
   0x00, 0x80, 0x54, 0xb5, 0x00, 0x14, 0x00, 0x40, 0x55, 0x15, 0xa0, 0x01,
   0x05, 0x00, 0x00, 0x15, 0x55, 0x55, 0x0d, 0x6a, 0xa0, 0xaa, 0x3a, 0x48,
   0x01, 0x55, 0xd5, 0x20, 0x05, 0x54, 0x55, 0x15, 0x01, 0x00, 0x00, 0x15,
   0x00, 0xd0, 0x80, 0xaa, 0x00, 0x50, 0x00, 0x00, 0x20, 0xa0, 0xaa, 0xfe,
   0x55, 0x55, 0x15, 0xaa, 0x40, 0xad, 0x0a, 0xa0, 0x0a, 0xa0, 0x0a, 0xa0,
   0x5a, 0x00, 0x55, 0x40, 0x01, 0xb5, 0xc0, 0x06, 0xa0, 0xaa, 0xaa, 0x80,
   0x6a, 0x01, 0x50, 0x55, 0x15, 0x50, 0x80, 0x5a, 0x60, 0xc0, 0x8b, 0xaa,
   0xaa, 0x0a, 0x94, 0x40, 0x55, 0x25, 0xb0, 0x82, 0xaa, 0xaa, 0xa0, 0x0a,
   0xaa, 0xaa, 0x6a, 0x01, 0x14, 0xa0, 0x6a, 0x01, 0x54, 0x01, 0x55, 0x0b,
   0xa8, 0x02, 0x10, 0x10, 0x50, 0x55, 0xff, 0xab, 0xaa, 0x4a, 0x55, 0x55,
   0x55, 0xa5, 0xaa, 0xaa, 0xaa, 0xaa, 0xaa, 0xaa, 0x6a, 0x95, 0xaa, 0xaa,
   0x2a, 0x95, 0xaa, 0xaa, 0xaa, 0xaa, 0xaa, 0xaa, 0xaa, 0xaa, 0xaa, 0x6a,
   0x55, 0x55, 0x95, 0xfa, 0xf5, 0x05, 0x55, 0x55, 0x55, 0x55, 0x55, 0x55,
   0x55, 0xad, 0xaa, 0xaa, 0xaa, 0xaa, 0xaa, 0xaa, 0xaa, 0xaa, 0xaa, 0xaa,
   0xaa, 0xaa, 0xaa, 0xaa, 0xaa, 0xaa, 0x52, 0xab, 0xaa, 0x56, 0xd5, 0xaa,
   0xaa, 0xfe, 0x55, 0x55, 0xb5, 0xaa, 0xaa, 0xaa, 0xaa, 0xaa, 0xaa, 0xaa,
   0xaa, 0xaa, 0xaa, 0xaa, 0x6a, 0x55, 0x55, 0x55, 0x55, 0x55, 0x55, 0x55,
   0x55, 0x55, 0x55, 0x55, 0x55, 0x55, 0x55, 0x55, 0x55, 0x55, 0x7d, 0xfa,
   0x42, 0x55, 0x55, 0x55, 0x55, 0x55, 0x55, 0x55, 0x53, 0x55, 0x55, 0x55,
   0x55, 0x55, 0x55, 0x55, 0x55, 0x55, 0x55, 0x55, 0x55, 0x55, 0x55, 0x55,
   0x55, 0x55, 0x55, 0x55, 0xa9, 0xaa, 0xaa, 0xaa, 0xfe, 0xab, 0xaa, 0x4a,
   0x55, 0x55, 0x55, 0x55, 0x55, 0x55, 0x55, 0x55, 0x55, 0x55, 0x55, 0x95,
   0xaa, 0xaa, 0xaa, 0xaa, 0xaa, 0xaa, 0xaa, 0xaa, 0xaa, 0xaa, 0xaa, 0xaa,
   0xaa, 0xaa, 0xaa, 0xaa, 0xaa, 0x5e, 0x7f, 0x45, 0x55, 0x55, 0x55, 0x55,
   0x55, 0x55, 0x55, 0x55, 0x55, 0x55, 0x55, 0x55, 0x55, 0x55, 0x55, 0x55,
   0x55, 0x55, 0x55, 0x55, 0x55, 0x55, 0x55, 0x55, 0x55, 0x55, 0x55, 0x55,
   0x55, 0x55, 0x55, 0xff, 0x55, 0x55, 0xb5, 0xaa, 0xaa, 0xaa, 0xaa, 0xaa,
   0xaa, 0xaa, 0xaa, 0xaa, 0xaa, 0xaa, 0x6a, 0x55, 0x55, 0x55, 0x55, 0x55,
   0x55, 0x55, 0x55, 0x55, 0x55, 0x55, 0x55, 0x55, 0x55, 0x55, 0x55, 0x55,
   0x5d, 0xbd, 0xa2, 0xaa, 0xaa, 0xaa, 0xaa, 0xaa, 0xaa, 0xaa, 0xaa, 0xaa,
   0xaa, 0xaa, 0xaa, 0xaa, 0xaa, 0xaa, 0xaa, 0xaa, 0xaa, 0xaa, 0xaa, 0xaa,
   0xaa, 0xaa, 0xaa, 0xaa, 0xaa, 0xaa, 0xaa, 0xaa, 0xaa, 0xaa, 0xfe, 0xab,
   0xaa, 0x4a, 0x55, 0x55, 0x55, 0x55, 0x55, 0x55, 0x55, 0x55, 0x55, 0x55,
   0x55, 0x55, 0x55, 0x55, 0x55, 0x55, 0x55, 0x55, 0x55, 0x55, 0x55, 0x55,
   0x55, 0x55, 0x55, 0x55, 0x55, 0x55, 0x55, 0xad, 0x2a, 0x40, 0x55, 0x55,
   0x55, 0x55, 0x55, 0x55, 0x55, 0x55, 0x55, 0x55, 0x55, 0x55, 0x55, 0x55,
   0x55, 0x55, 0x55, 0x55, 0x55, 0x55, 0x55, 0x55, 0x55, 0x55, 0x55, 0x55,
   0x55, 0x55, 0x55, 0x55, 0x55, 0xff, 0x55, 0x55, 0xb5, 0xaa, 0xaa, 0xaa,
   0xaa, 0xaa, 0xaa, 0xaa, 0xaa, 0xaa, 0xaa, 0xaa, 0xaa, 0xaa, 0xaa, 0xaa,
   0xaa, 0xaa, 0xaa, 0xaa, 0xaa, 0xaa, 0xaa, 0xaa, 0xaa, 0xaa, 0xaa, 0xaa,
   0xaa, 0xaa, 0x0a, 0x00, 0x50, 0x55, 0x55, 0x55, 0x55, 0x55, 0x55, 0x55,
   0x55, 0x55, 0x55, 0x55, 0x55, 0x55, 0x55, 0x55, 0x55, 0x55, 0x55, 0x55,
   0x55, 0x55, 0x55, 0x55, 0x55, 0x55, 0x55, 0x55, 0x55, 0x55, 0x55, 0x55,
   0xff, 0xab, 0xaa, 0xaa, 0xaa, 0xaa, 0xaa, 0xaa, 0xaa, 0xaa, 0xaa, 0xaa,
   0xaa, 0xaa, 0xaa, 0xaa, 0xaa, 0xaa, 0xaa, 0xaa, 0xaa, 0xaa, 0xaa, 0xaa,
   0xaa, 0xaa, 0xaa, 0xaa, 0xaa, 0xaa, 0xaa, 0xaa, 0xaa, 0x0a, 0x00, 0xaa,
   0xaa, 0xaa, 0xaa, 0xaa, 0xaa, 0xaa, 0xaa, 0xaa, 0xaa, 0xaa, 0xaa, 0xaa,
   0xaa, 0xaa, 0xaa, 0xaa, 0xaa, 0xaa, 0xaa, 0xaa, 0xaa, 0xaa, 0xaa, 0xaa,
   0xaa, 0xaa, 0xaa, 0xaa, 0xaa, 0xaa, 0xaa, 0xfe, 0x55, 0x55, 0x55, 0x55,
   0x55, 0x55, 0x55, 0x55, 0x55, 0x55, 0x55, 0x55, 0x55, 0x55, 0x55, 0x55,
   0x55, 0x55, 0x55, 0x55, 0x55, 0x55, 0x55, 0x55, 0x55, 0x55, 0x55, 0x55,
   0x55, 0x55, 0x55, 0x55, 0x55, 0x55, 0x55, 0x55, 0x55, 0x55, 0x55, 0x55,
   0x55, 0x55, 0x55, 0x55, 0x55, 0x55, 0x55, 0x55, 0x55, 0x55, 0x55, 0x55,
   0x55, 0x55, 0x55, 0x55, 0x55, 0x55, 0x55, 0x55, 0x55, 0x55, 0x55, 0x55,
   0x55, 0x55, 0xff, 0xab, 0xaa, 0xaa, 0xaa, 0xaa, 0xaa, 0xaa, 0xaa, 0xaa,
   0xaa, 0xaa, 0xaa, 0xaa, 0xaa, 0xaa, 0xaa, 0xaa, 0xaa, 0xaa, 0xaa, 0xaa,
   0xaa, 0xaa, 0xaa, 0xaa, 0xaa, 0xaa, 0xaa, 0xaa, 0xaa, 0xaa, 0xaa, 0xaa,
   0xaa, 0xaa, 0xaa, 0xaa, 0xaa, 0xaa, 0xaa, 0xaa, 0xaa, 0xaa, 0xaa, 0xaa,
   0xaa, 0xaa, 0xaa, 0xaa, 0xaa, 0xaa, 0xaa, 0xaa, 0xaa, 0xaa, 0xaa, 0xaa,
   0xaa, 0xaa, 0xaa, 0xaa, 0xaa, 0xaa, 0xaa, 0xaa, 0xaa, 0xfe, 0x55, 0x55,
   0x55, 0x55, 0x55, 0x55, 0x55, 0x55, 0x55, 0x55, 0x55, 0x55, 0x55, 0x55,
   0x55, 0x55, 0x55, 0x55, 0x55, 0x55, 0x55, 0x55, 0x55, 0x55, 0x55, 0x55,
   0x55, 0x55, 0x55, 0x55, 0x55, 0x55, 0x55, 0x55, 0x55, 0x55, 0x55, 0x55,
   0x55, 0x55, 0x55, 0x55, 0x55, 0x55, 0x55, 0x55, 0x55, 0x55, 0x55, 0x55,
   0x55, 0x55, 0x55, 0x55, 0x55, 0x55, 0x55, 0x55, 0x55, 0x55, 0x55, 0x55,
   0x55, 0x55, 0x55, 0x55, 0xff, 0xab, 0xaa, 0xaa, 0xaa, 0xaa, 0xaa, 0xaa,
   0xaa, 0xaa, 0xaa, 0xaa, 0xaa, 0xaa, 0xaa, 0xaa, 0xaa, 0xaa, 0xaa, 0xaa,
   0xaa, 0xaa, 0xaa, 0xaa, 0xaa, 0xaa, 0xaa, 0xaa, 0xaa, 0xaa, 0xaa, 0xaa,
   0xaa, 0xaa, 0xaa, 0xaa, 0xaa, 0xaa, 0xaa, 0xaa, 0xaa, 0xaa, 0xaa, 0xaa,
   0xaa, 0xaa, 0xaa, 0xaa, 0xaa, 0xaa, 0xaa, 0xaa, 0xaa, 0xaa, 0xaa, 0xaa,
   0xaa, 0xaa, 0xaa, 0xaa, 0xaa, 0xaa, 0xaa, 0xaa, 0xaa, 0xaa, 0xaa, 0xfe,
   0x55, 0x55, 0x55, 0x55, 0x55, 0x55, 0x55, 0x55, 0x55, 0x55, 0x55, 0x55,
   0x55, 0x55, 0x55, 0x55, 0x55, 0x55, 0x55, 0x55, 0x55, 0x55, 0x55, 0x55,
   0x55, 0x55, 0x55, 0x55, 0x55, 0x55, 0x55, 0x55, 0x55, 0x55, 0x55, 0x55,
   0x55, 0x55, 0x55, 0x55, 0x55, 0x55, 0x55, 0x55, 0x55, 0x55, 0x55, 0x55,
   0x55, 0x55, 0x55, 0x55, 0x55, 0x55, 0x55, 0x55, 0x55, 0x55, 0x55, 0x55,
   0x55, 0x55, 0x55, 0x55, 0x55, 0x55, 0xff, 0xff, 0xff, 0xff, 0xff, 0xff,
   0xff, 0xff, 0xff, 0xff, 0xff, 0xff, 0xff, 0xff, 0xff, 0xff, 0xff, 0xff,
   0xff, 0xff, 0xff, 0xff, 0xff, 0xff, 0xff, 0xff, 0xff, 0xff, 0xff, 0xff,
   0xff, 0xff, 0xff, 0xff, 0xff, 0xff, 0xff, 0xff, 0xff, 0xff, 0xff, 0xff,
   0xff, 0xff, 0xff, 0xff, 0xff, 0xff, 0xff, 0xff, 0xff, 0xff, 0xff, 0xff,
   0xff, 0xff, 0xff, 0xff, 0xff, 0xff, 0xff, 0xff, 0xff, 0xff, 0xff, 0xff,
   0xff, 0xff};
